<svg width="995" height="739" viewBox="0 0 995 739" fill="none" xmlns="http://www.w3.org/2000/svg">
    <g clip-path="url(#clip0_12_154)">
        <path d="M261.926 210.728C261.61 208.231 260.971 205.785 260.025 203.452C259.904 203.011 259.693 202.6 259.405 202.245C259.117 201.89 258.757 201.599 258.35 201.39C257.806 201.249 257.236 201.242 256.689 201.372L248.159 202.677C247.445 202.709 246.761 202.975 246.212 203.433C245.101 204.601 246.195 206.482 246.161 208.094C246.123 209.907 244.513 211.378 242.766 211.865C240.983 212.225 239.144 212.202 237.371 211.798L225.443 209.944C228.956 208.823 232.083 206.736 234.467 203.923C236.036 202.064 236.871 198.593 234.603 197.712C233.929 197.527 233.226 197.471 232.531 197.546C227.127 197.588 222.874 193.076 217.815 191.176C214.577 190.039 211.062 189.954 207.773 190.934C204.484 191.915 201.589 193.91 199.503 196.635L205.857 196.941C206.455 196.908 207.048 197.066 207.55 197.392C208.942 198.536 207.211 200.734 207.407 202.525C207.662 204.852 210.752 205.349 213.082 205.585C215.412 205.82 218.367 207.713 217.247 209.768C205.537 213.801 193.622 201.885 181.324 203.352C178.212 203.723 175.273 204.946 172.234 205.714C153.671 210.411 134.481 197.881 115.518 200.534C111.302 201.253 107.159 202.346 103.137 203.799C100.557 204.647 97.8645 205.562 95.9893 207.527C94.1141 209.492 93.4004 212.853 95.1769 214.908C90.2804 215.311 85.3511 214.843 80.6183 213.524C81.8981 214.236 82.9629 215.278 83.7007 216.543C84.4385 217.808 84.8223 219.248 84.8116 220.712C77.1663 221.958 69.7234 224.227 62.6832 227.458C63.9972 229.643 65.5319 231.687 67.2633 233.559L57.5845 239.776C60.8544 240.6 62.5451 245.058 60.6435 247.843C64.034 246.335 66.1354 242.433 69.761 241.642C72.1363 241.124 74.5532 242.095 76.8065 243.008C79.0598 243.921 81.5365 244.806 83.8691 244.121C86.2018 243.436 87.9223 240.411 86.4401 238.484C96.4105 235.576 106.715 233.966 117.097 233.695C117.898 233.595 118.711 233.749 119.419 234.136C120.771 235.073 120.415 237.099 120.342 238.742C120.269 240.385 121.55 242.544 123.019 241.804C121.291 243.302 122.768 246.123 124.426 247.698C126.084 249.274 128.082 251.448 127.067 253.497C126.802 254.032 126.353 254.46 126.098 255C125.346 256.593 126.54 258.45 127.949 259.508C129.358 260.566 131.084 261.306 132.063 262.771C133.041 264.236 132.597 266.8 130.847 267.005L125.872 260.69C124.173 262.452 123.008 264.659 122.512 267.057C127.787 271.368 128.581 280.145 124.164 285.332C121.908 287.983 118.698 289.594 115.897 291.662C113.096 293.73 110.504 296.674 110.511 300.156C110.524 306.17 110.032 311.758 112.286 317.334C116.443 327.616 121.241 337.627 126.654 347.307C128.076 349.849 129.913 352.635 132.792 353.073C129.153 344.214 125.877 335.218 122.964 326.085C124.861 326.092 127.054 326.243 128.166 327.779C129.087 329.052 128.889 330.782 129.175 332.327C129.539 333.823 130.146 335.25 130.972 336.55L148.35 367.501C149.79 370.067 151.443 372.821 154.196 373.86C155.956 374.525 157.993 374.399 159.613 375.356C160.883 376.106 161.738 377.436 163.033 378.143C166.694 380.139 171.784 376.31 175.205 378.694C176.183 379.376 176.806 380.459 177.707 381.239C180.867 383.975 186.05 382.145 189.697 384.186C192.048 385.501 193.266 388.131 194.52 390.515C197.661 396.487 202.742 402.337 209.473 402.812C211.587 402.962 213.747 402.561 215.814 403.031C217.88 403.501 219.915 405.305 219.583 407.398C219.014 410.987 220.788 414.916 220.311 418.518C219.444 425.079 210.136 427.962 209.337 434.532C209.162 435.971 209.436 437.455 209.093 438.863C208.674 440.589 207.377 441.994 206.917 443.709C206.044 446.96 208.373 450.195 210.932 452.381C213.49 454.568 216.542 456.454 217.941 459.515C219.42 462.751 218.693 466.524 219.174 470.048C220.224 477.743 226.871 483.448 233.712 487.126C235.796 488.247 238.034 489.331 239.383 491.276C241.144 493.813 240.968 497.158 241.556 500.19C242.996 507.615 249.248 513.734 249.425 521.295C249.551 526.67 246.563 531.545 244.779 536.616C243.105 541.475 242.5 546.637 243.003 551.751C243.507 556.865 245.108 561.81 247.697 566.249C249.032 568.504 250.629 570.629 251.573 573.073C253.259 577.434 252.712 582.391 254.266 586.801C256.32 592.631 261.966 597.446 261.426 603.603C263.989 608.925 269.648 611.54 275.34 613.124L285.54 615.963C287.493 616.507 289.533 617.055 291.522 616.661C293.511 616.268 295.409 614.616 295.357 612.59C290.356 611.462 285.193 610.263 281.07 607.215C276.947 604.167 274.122 598.74 275.687 593.858C276.412 591.594 277.955 588.979 276.488 587.109C275.648 586.038 274.112 585.758 273.164 584.781C271.686 583.256 272.194 580.696 273.257 578.858C274.319 577.019 275.855 575.377 276.284 573.298C276.5 572.134 276.355 570.933 275.869 569.854C275.383 568.775 274.579 567.871 273.564 567.262C275.455 566.548 277.175 565.445 278.613 564.023C279.94 562.507 280.554 560.17 279.509 558.446C282.611 558.84 286.272 559.032 288.308 556.66C289.934 554.766 289.822 551.934 289.18 549.522C288.537 547.109 287.452 544.767 287.418 542.271C294.572 542.61 301.743 542.367 308.858 541.544C307.829 538.079 305.491 535.151 302.339 533.381C305.562 532.836 308.497 528.978 309.515 525.873C310.534 522.768 310.274 519.385 309.645 516.179C309.403 515.353 309.37 514.48 309.548 513.639C309.911 512.483 311.047 511.777 312.098 511.173L328.093 501.988C329.048 501.51 329.913 500.872 330.651 500.1C332.327 498.132 332.078 495.161 331.22 492.723C330.362 490.284 328.988 487.991 328.657 485.428C327.669 477.761 335.877 472.26 338.647 465.042C339.735 462.21 339.956 459.131 340.167 456.105C340.392 452.854 340.409 449.078 337.913 446.984C335.52 444.976 331.782 445.424 329.278 443.556C326.982 441.843 326.19 438.518 323.683 437.135C321.405 435.879 318.55 436.677 316.017 436.087C311.557 435.046 308.751 429.907 304.196 429.431C301.627 429.163 298.718 430.419 296.612 428.923C294.756 427.604 294.682 424.954 294.328 422.705C293.709 419.21 292.034 415.988 289.528 413.474C287.022 410.961 283.805 409.275 280.312 408.645C277.662 408.22 274.778 408.381 272.524 406.925C270.242 405.451 269.195 402.691 267.403 400.649C264.513 397.359 259.962 396.19 255.699 395.188L238.358 391.112C235.28 390.388 231.312 390.005 229.66 392.701C229.171 393.727 228.825 394.816 228.632 395.936C228.013 397.963 226.767 399.742 225.074 401.016C223.38 402.29 221.326 402.995 219.207 403.029C217.754 400.55 215.4 398.729 212.635 397.944C210.877 397.455 208.995 397.4 207.318 396.679C206.404 396.233 205.592 395.606 204.929 394.835C204.267 394.065 203.769 393.167 203.465 392.197C203.162 391.227 203.06 390.206 203.165 389.195C203.27 388.184 203.58 387.206 204.077 386.319C205.077 384.539 205.463 382.48 205.175 380.459C204.888 378.438 203.944 376.567 202.488 375.136C199.539 372.489 195.273 371.849 191.319 372.114C190.284 369.855 192.015 367.306 193.881 365.664C195.747 364.022 198.013 362.407 198.419 359.955C199.058 356.098 194.137 353.169 190.4 354.319C186.663 355.469 184.277 359.098 182.701 362.676C181.796 364.729 181.027 366.89 179.6 368.621C178.173 370.352 175.875 371.591 173.702 371.036C170.624 370.25 169.436 366.594 168.755 363.492C167.841 359.331 166.922 355.111 167.114 350.855C167.305 346.598 168.74 342.228 171.879 339.346C176.994 334.651 184.841 335.111 191.745 335.86C190.114 334.023 190.517 330.926 192.262 329.197C193.183 328.379 194.29 327.797 195.487 327.503C196.683 327.209 197.934 327.212 199.129 327.51C201.209 327.943 203.083 329.063 204.449 330.691C206.411 333.082 206.969 336.311 208.452 339.025C209.935 341.74 213.269 344.055 215.998 342.599C218.355 341.341 218.729 338.073 218.142 335.467C217.556 332.86 216.31 330.326 216.522 327.663C216.928 322.581 222.196 319.522 226.845 317.43C231.493 315.337 236.817 312.522 237.553 307.478C237.578 306.491 237.765 305.514 238.105 304.586C238.62 303.767 239.337 303.093 240.186 302.629C253.754 293.664 267.547 284.589 283.054 279.69C283.861 279.435 283.956 279.718 284.778 279.519C285.929 278.854 285.166 277.014 284.063 276.273C282.96 275.532 281.485 274.964 281.205 273.665C280.999 272.71 281.562 271.772 281.708 270.806C282.067 268.433 279.228 266.241 277.022 267.19C275.777 265.541 278.242 263.624 280.235 263.075C286.219 261.428 292.363 260.425 298.56 260.082C299.275 259.968 300.008 260.093 300.645 260.437C301.686 261.158 301.553 262.811 300.816 263.84C300.078 264.869 298.93 265.516 298.011 266.386C297.007 267.365 296.29 268.6 295.94 269.958C295.59 271.315 295.619 272.743 296.025 274.085C299.261 275.731 302.778 277.425 306.362 276.845C309.945 276.265 313.126 272.24 311.441 269.024C309.873 266.03 305.161 265.355 304.351 262.073C303.403 258.231 308.842 254.814 307.617 251.051C307.08 249.403 305.437 248.433 304.176 247.243C302.688 245.784 301.675 243.909 301.271 241.864C300.868 239.819 301.092 237.699 301.915 235.784C299.861 236.145 297.751 236.009 295.762 235.386C293.772 234.764 291.961 233.673 290.479 232.206C287.744 229.446 285.562 225.092 281.678 225.215C278.114 225.329 275.044 229.487 271.711 228.218C270.891 227.906 270.026 227.271 269.232 227.643C268.972 227.812 268.753 228.038 268.593 228.304C268.433 228.57 268.335 228.869 268.307 229.178C267.46 233.227 268.917 237.84 266.71 241.338C264.309 245.146 258.754 245.674 255.842 249.107C254.262 250.97 253.649 253.482 252.197 255.447C250.744 257.411 247.661 258.661 245.917 256.948C246.774 255.187 247.008 253.187 246.581 251.276C246.154 249.365 245.091 247.654 243.566 246.425C241.948 245.369 240.203 244.521 238.373 243.9C236.328 243.034 234.383 241.95 232.571 240.666C231.663 240.119 230.926 239.33 230.441 238.388C230.058 237.208 230.109 235.929 230.587 234.784C231.471 232.25 233.03 230.005 235.097 228.292C237.164 226.58 239.659 225.464 242.314 225.066C244.635 224.75 247.336 224.861 248.872 223.093C249.685 222.157 250.112 220.742 251.292 220.362C252.046 220.211 252.83 220.307 253.525 220.637L262.189 223.686C263.156 224.123 264.22 224.299 265.275 224.197C265.799 224.126 266.276 223.861 266.612 223.453C266.947 223.045 267.116 222.525 267.085 221.998C266.808 220.559 264.594 219.869 264.795 218.418C264.908 217.948 265.161 217.523 265.521 217.199C268.647 213.872 272.471 211.276 276.718 209.599C280.966 207.922 285.531 207.205 290.088 207.499C291.181 209.295 289.452 211.421 288.013 212.954C286.574 214.487 285.418 217.226 287.158 218.406C287.871 218.77 288.664 218.949 289.465 218.926C291.598 219.214 293.671 219.843 295.605 220.788C298.599 222.091 301.535 223.516 304.414 225.064C304.16 223.166 303.917 221.167 304.637 219.392C305.356 217.617 307.401 216.225 309.187 216.916C310.908 217.582 311.791 219.861 313.625 220.07C316.071 220.349 317.037 216.735 316.015 214.495C314.993 212.255 312.97 210.38 312.801 207.924C312.687 206.267 313.318 204.212 311.994 203.209C311.523 202.907 310.988 202.72 310.432 202.661L277.381 196.58C275.418 196.219 272.583 196.495 272.496 198.489C272.447 199.602 273.441 200.702 273.001 201.726C272.531 202.818 270.987 202.718 269.863 203.104C268.118 203.703 267.243 205.775 267.41 207.611C267.717 209.437 268.424 211.171 269.48 212.691C267.331 211.792 264.075 211.627 261.926 210.728Z" fill="#3F3D56"/>
        <path d="M235.554 182.675C233.47 181.985 231.224 181.953 229.121 182.582C227.018 183.212 225.159 184.473 223.797 186.195C223.253 186.911 222.796 187.899 223.252 188.675C223.905 189.787 225.569 189.348 226.796 188.95C228.6 188.306 230.563 188.259 232.395 188.816C233.547 189.212 234.578 189.911 235.735 190.292C236.299 190.527 236.915 190.605 237.52 190.517C238.124 190.429 238.693 190.178 239.165 189.791C239.959 188.981 240.009 187.721 240.01 186.587C240.066 186.208 240.035 185.821 239.922 185.454C239.808 185.088 239.614 184.752 239.354 184.47C238.891 184.201 238.37 184.048 237.835 184.021C236.638 183.799 235.556 183.167 234.775 182.232" fill="#3F3D56"/>
        <path d="M247.472 179.357C247.005 179.331 246.54 179.426 246.121 179.633C245.702 179.839 245.343 180.15 245.079 180.535C244.814 180.92 244.654 181.366 244.612 181.832C244.57 182.297 244.649 182.765 244.84 183.191C246.272 183.581 247.769 183.679 249.24 183.478C249.974 183.364 250.657 183.035 251.204 182.534C251.752 182.032 252.138 181.379 252.315 180.658C250.583 180.973 248.796 180.632 247.302 179.701" fill="#3F3D56"/>
        <path d="M287.457 173.816C283.558 174.644 279.771 175.931 276.174 177.648C277.87 178.3 279.311 179.479 280.286 181.012C281.261 182.544 281.717 184.35 281.588 186.161C281.436 186.857 281.454 187.579 281.64 188.266C282.054 189.271 283.255 189.648 284.31 189.906C286.207 190.483 288.187 190.735 290.168 190.653C291.159 190.601 292.121 190.303 292.968 189.786C293.814 189.269 294.519 188.548 295.017 187.69C295.304 186.876 295.641 186.08 296.025 185.307C298.556 181.454 306.073 186.113 308.789 182.389C309.746 181.077 309.659 179.102 310.906 178.063C311.552 177.61 312.3 177.324 313.083 177.232C318.546 176.147 324.065 175.361 329.614 174.878C332.243 174.649 335.67 173.705 335.692 171.066C325.789 169.122 315.52 170.503 306.482 174.995C303.226 176.626 298.92 180.056 295.783 177.894C294.609 177.085 294.667 174.905 293.051 173.995C291.398 173.065 289.211 173.443 287.457 173.816Z" fill="#3F3D56"/>
        <path d="M319.844 179.872L324.493 180.765C323.637 180.727 322.783 180.872 321.988 181.19C321.193 181.508 320.475 181.993 319.881 182.61C319.288 183.228 318.833 183.965 318.548 184.773C318.262 185.58 318.152 186.439 318.224 187.293C322.578 188.747 327.324 187.332 331.91 187.525C336.496 187.718 341.832 190.994 341.049 195.516C340.812 196.883 340.022 198.25 340.433 199.575C340.721 200.504 341.54 201.164 342.003 202.019C342.967 203.802 342.196 206.058 340.979 207.678C339.762 209.299 338.126 210.592 337.058 212.315C334.401 216.599 335.911 222.137 337.493 226.924C337.951 228.732 338.796 230.419 339.97 231.869C342.315 234.362 346.136 234.579 349.559 234.629C352.049 234.665 354.903 234.542 356.478 232.612C358.534 230.093 357.096 226.163 358.45 223.206C359.68 220.521 362.813 219.369 365.651 218.552C370.851 217.055 376.151 215.782 381.067 213.521C387.171 210.714 392.876 206.338 399.586 205.977C401.468 205.876 403.397 206.098 405.21 205.582C407.023 205.066 408.746 203.499 408.609 201.619C408.491 200.013 407.132 198.833 406.07 197.623C405.008 196.412 404.174 194.55 405.15 193.269L422.737 189.984C421.49 186.587 420.519 182.113 423.384 179.902C424.417 179.104 425.801 178.786 426.681 177.821C428.181 176.177 427.427 173.345 425.696 171.947C423.964 170.549 421.623 170.225 419.405 170.041C411.694 169.4 403.938 169.824 396.212 170.247C381.109 171.075 366.006 171.903 350.902 172.73C347.862 172.897 344.352 172.642 341.563 173.68C339.202 174.558 337.524 176.169 334.824 176.736C329.84 177.781 324.355 177.074 319.844 179.872Z" fill="#3F3D56"/>
        <path d="M403.128 216.614C402.654 216.539 402.17 216.649 401.775 216.921C401.514 217.208 401.358 217.576 401.334 217.964C401.034 219.675 401.392 221.437 402.335 222.896C402.816 223.611 403.479 224.185 404.257 224.558C405.034 224.931 405.897 225.088 406.756 225.015C408.85 224.748 410.392 222.962 412.317 222.091C415.283 220.749 427.879 218.658 419.166 213.951C416.163 212.329 414.222 213.761 411.856 214.829C409.163 216.206 406.145 216.823 403.128 216.614Z" fill="#3F3D56"/>
        <path d="M479.448 177.214C478.431 177.63 477.579 178.371 477.027 179.321C476.773 179.804 476.714 180.366 476.862 180.89C477.011 181.415 477.355 181.863 477.825 182.141C478.205 182.279 478.608 182.343 479.012 182.329L483.149 182.453C484.906 182.505 487.102 182.88 487.574 184.573C487.924 185.831 487.14 187.446 488.087 188.345C488.493 188.66 488.982 188.85 489.494 188.894C490.857 189.244 492.28 189.29 493.662 189.028C496.673 188.221 495.091 186.384 496.039 184.748C497.489 182.246 497.238 183.761 499.794 182.326C501.682 181.267 504.121 179.346 502.546 176.646C499.806 171.951 483.491 175.197 479.448 177.214Z" fill="#3F3D56"/>
        <path d="M561.103 174.854L558.701 175.174C553.284 175.897 547.836 176.627 542.618 178.253C544.877 179.146 547.246 179.728 549.662 179.981C550.991 180.047 552.312 180.234 553.607 180.542C555.912 181.228 558.234 183 560.46 182.092C561.841 181.53 562.291 180.092 563.435 179.331C564.224 178.805 567.219 177.953 567.554 177.423C570.26 173.131 563.184 174.576 561.103 174.854Z" fill="#3F3D56"/>
        <path d="M571.652 185.771C568.443 187.565 565.466 189.745 562.787 192.262C561.658 193.323 560.505 194.643 560.608 196.188C560.744 198.243 562.932 199.434 564.828 200.237L572.508 203.488C573.439 202.175 572.587 200.362 571.624 199.072C570.661 197.782 569.517 196.289 569.942 194.737C570.428 192.965 572.588 192.361 574.4 192.056C577.352 191.558 585.315 191.598 584.358 186.841C583.231 181.236 574.615 184.115 571.652 185.771Z" fill="#3F3D56"/>
        <path d="M570.108 502.963C569.377 505.079 569.307 507.572 570.572 509.42C571.991 511.493 574.831 512.266 577.288 511.741C579.735 511.09 581.916 509.688 583.523 507.732C584.994 506.093 586.203 504.239 587.11 502.232C588.375 499.106 589.267 495.842 589.768 492.507L592.153 479.989C592.686 477.191 592.665 468.614 587.522 471.409C586.118 472.172 582.865 478.2 581.393 479.909C578.739 482.989 578.388 485.978 576.991 489.71C575.242 494.385 571.725 498.281 570.108 502.963Z" fill="#3F3D56"/>
        <path d="M841.716 567.02C840.033 566.364 838.4 565.586 836.829 564.694C835.254 569.024 834.417 573.587 834.352 578.193L845.867 571.679C847.599 570.699 849.562 569.337 849.525 567.347C849.54 567.102 849.489 566.856 849.377 566.637C849.265 566.418 849.096 566.233 848.888 566.101C848.632 565.999 848.354 565.966 848.081 566.007C846.374 566.149 844.817 566.989 843.206 567.573C841.596 568.157 839.712 568.466 838.234 567.599" fill="#3F3D56"/>
        <path d="M902.456 570.888C901.193 571.232 899.958 571.675 898.764 572.213C896.122 573.557 894.324 576.111 891.946 577.881C889.671 579.575 886.932 580.506 884.243 581.41C883.452 582.109 883.815 583.517 884.674 584.131C885.597 584.657 886.656 584.895 887.715 584.815C890.508 584.877 893.452 584.903 895.898 583.554C897.277 582.66 898.567 581.636 899.751 580.497C902.612 578.11 906.048 576.535 909.449 575.013C910.687 574.546 911.831 573.862 912.829 572.993C914.966 570.887 915.116 567.64 912.035 566.923C909.545 566.344 904.827 570.121 902.456 570.888Z" fill="#3F3D56"/>
        <path d="M929.294 553.359C929.432 551.911 929.24 550.45 928.731 549.086C928.222 547.723 927.409 546.493 926.355 545.49C926.324 548.388 926.236 551.476 924.606 553.872C923.444 555.58 921.623 556.734 920.35 558.36C919.078 559.987 918.513 562.565 920.005 563.992C920.959 564.718 922.122 565.119 923.321 565.134C926.292 565.484 929.731 565.679 931.815 563.532C932.953 562.361 933.506 560.625 934.894 559.764C935.41 559.547 935.872 559.217 936.244 558.798C936.817 557.887 935.907 556.687 934.882 556.359C933.858 556.031 932.729 556.185 931.699 555.874C930.669 555.562 929.724 554.404 930.253 553.467" fill="#3F3D56"/>
        <path d="M881.595 447.097C880.036 447.476 878.422 447.571 876.829 447.378C874.184 446.892 872.125 444.898 869.989 443.263C864.912 439.398 858.741 437.242 852.361 437.105C846.558 436.995 840.7 438.568 835.001 437.471C835.373 439.542 837.145 441.095 839.036 442.018C840.928 442.942 843.015 443.406 844.915 444.311C847.958 445.773 850.371 448.284 851.713 451.382C852.325 452.811 852.71 454.365 853.637 455.612C855.532 458.161 859.123 458.721 862.293 458.513C866.426 458.241 870.742 457.053 874.586 458.592C877.527 459.77 879.632 462.344 882.088 464.345C884.544 466.346 888.003 467.832 890.822 466.388C887.893 465.44 885.344 463.58 883.547 461.081C881.749 458.582 880.798 455.573 880.832 452.495C883.597 452.75 891.563 452.651 891.134 447.952C890.77 443.97 883.97 446.667 881.595 447.097Z" fill="#3F3D56"/>
        <path d="M845.416 479.496C845.907 476.803 848.592 474.425 847.756 471.819C847.177 470.016 845.087 469.126 843.194 469.082C841.302 469.037 839.442 469.601 837.55 469.654C836.318 469.589 835.083 469.606 833.853 469.707C830.097 470.324 827.781 474.261 824.241 475.661C822.088 476.513 819.669 476.35 817.431 476.938C812.348 478.274 809.133 483.076 805.58 486.948C799.84 493.175 792.361 497.536 784.114 499.465C781.224 500.134 778.118 500.562 775.821 502.439C772.779 504.924 772.03 509.184 771.354 513.052C769.484 523.737 766.627 534.225 762.819 544.381L774.886 545.922C777.181 546.215 779.558 546.501 781.769 545.822C783.375 545.216 784.897 544.405 786.296 543.411C791.671 540.074 797.686 537.903 803.953 537.038C807.113 536.604 810.426 536.525 813.392 537.699C816.358 538.874 818.902 541.537 819.15 544.717C820.433 544.318 821.8 544.275 823.105 544.592C824.41 544.91 825.604 545.576 826.56 546.519C828.45 548.444 829.687 550.914 830.098 553.58C830.416 555.231 830.734 557.209 832.266 557.902C833.515 558.467 834.949 557.858 836.317 557.749C840.956 557.377 844.806 562.787 849.367 561.855C854.257 560.856 855.458 553.532 860.23 552.065C862.97 551.223 866.814 552.247 868.126 549.698C869.283 547.452 866.975 544.859 867.213 542.344C867.506 539.247 871.16 537.932 873.977 536.61C883.688 532.054 888.297 518.985 883.591 509.346C880.803 503.635 875.316 499.139 874.303 492.865C873.524 488.038 875.427 482.409 872.349 478.609C870.783 476.677 868.132 475.61 867.2 473.303C866.614 471.852 866.849 470.204 866.534 468.671C866.218 467.137 864.88 465.533 863.366 465.931C858.969 467.085 857.566 480.664 855.212 483.964C851.634 488.979 844.289 485.676 845.416 479.496Z" fill="#3F3D56"/>
        <path d="M764.153 452.228C762.651 451.807 761.01 451.392 759.571 451.994C758.131 452.596 757.29 454.709 758.446 455.757C767.484 455.405 776.579 455.056 785.541 456.283C795.866 457.697 806.085 461.2 816.456 460.17C810.532 458.422 804.51 457.025 798.421 455.985L788.268 454.046C785.545 453.476 782.793 453.05 780.024 452.772C774.232 452.294 769.848 453.824 764.153 452.228Z" fill="#3F3D56"/>
        <path d="M773.202 420.751C772.452 420.688 771.522 420.635 771.134 421.28C770.763 421.896 771.188 422.71 770.988 423.401C770.716 424.346 769.479 424.587 768.505 424.458C767.53 424.33 766.476 424.022 765.613 424.492C765.175 424.791 764.846 425.224 764.675 425.726C764.505 426.227 764.501 426.771 764.666 427.275C765.019 428.276 765.589 429.186 766.337 429.939C767.614 431.548 769.068 433.007 770.673 434.288C773.78 436.581 777.988 437.686 779.945 441.014C780.221 441.659 780.645 442.23 781.183 442.681C782.123 443.276 783.348 442.823 784.359 442.361L787.904 440.741C788.542 440.511 789.112 440.124 789.561 439.614C790.371 438.516 789.874 436.953 789.194 435.77C788.514 434.586 787.644 433.361 787.79 432.004C788.05 429.584 791.161 428.658 792.441 426.588C793.73 424.501 792.891 421.812 793.039 419.364C793.213 416.5 795.013 412.775 792.118 410.635C789.657 408.817 787.305 410.497 785.538 412.505C781.812 416.738 780.051 421.323 773.202 420.751Z" fill="#3F3D56"/>
        <path d="M794.72 377.963C795.93 380.28 798.453 381.663 799.773 383.92C801.204 386.365 801.041 389.526 802.593 391.896C804.185 394.329 807.389 395.62 808.282 398.386C809.257 401.407 807.045 405.078 808.808 407.717C809.137 408.148 809.552 408.506 810.026 408.769C810.501 409.032 811.025 409.193 811.565 409.242C812.105 409.292 812.65 409.229 813.164 409.057C813.679 408.885 814.152 408.609 814.554 408.244C815.297 407.435 815.695 406.367 815.662 405.269C815.63 404.171 815.17 403.129 814.38 402.365C813.336 401.413 811.837 401.002 810.965 399.89C810.511 399.249 810.209 398.512 810.081 397.737C809.606 395.501 809.682 393.182 810.303 390.982C810.536 390.423 810.595 389.808 810.473 389.215C810.08 388.074 808.536 387.993 807.452 387.464C804.99 386.263 805.05 382.789 805.48 380.084C805.194 381.885 798.777 378.821 798.106 377.801C796.771 375.775 797.497 371.865 797.233 369.626C794.352 371.014 793.24 375.13 794.72 377.963Z" fill="#3F3D56"/>
        <path d="M730.081 413.614C728.897 412.288 727.113 410.901 725.525 411.701C724.314 412.311 723.981 413.987 724.456 415.257C725.034 416.491 725.924 417.552 727.039 418.336C730.348 421.065 733.911 423.527 736.797 426.699C741.963 432.375 744.699 440.034 750.317 445.263C751.446 446.475 752.941 447.284 754.574 447.566C756.21 447.718 758.048 446.671 758.236 445.038C758.391 443.693 757.454 442.489 756.537 441.493C754.355 439.119 751.966 436.935 749.906 434.455C748.954 433.502 748.356 432.253 748.211 430.915C748.2 429.58 749.418 428.182 750.712 428.513C749.138 428.111 747.971 425.489 745.662 424.996C743.731 424.585 743.265 425.779 740.967 424.794C736.586 422.916 733.149 417.048 730.081 413.614Z" fill="#3F3D56"/>
        <path d="M833.024 284.542C831.767 284.169 830.532 283.727 829.323 283.22C826.07 282.244 821.766 284.634 822.2 288.003C822.488 290.24 824.571 291.749 825.721 293.69C827.427 296.569 826.972 300.22 826.076 303.444C825.856 304.442 825.437 305.386 824.845 306.219C824.017 307.098 823.027 307.81 821.93 308.315C817.537 310.778 813.663 314.069 810.522 318.006C810.181 318.369 809.943 318.818 809.833 319.304C809.678 320.441 810.821 321.27 811.468 322.218C812.903 324.325 811.866 327.16 812.008 329.706C811.986 330.066 812.056 330.425 812.212 330.75C812.369 331.075 812.605 331.355 812.9 331.563C813.765 332.003 814.79 331.256 815.259 330.406C816.816 327.587 815.643 323.061 818.563 321.701C819.116 321.444 819.785 321.336 820.154 320.85C820.739 320.081 820.174 318.941 820.471 318.021C820.916 316.64 822.805 316.578 824.255 316.639C826.752 316.744 829.249 316.411 831.632 315.657C832.567 315.435 833.416 314.943 834.075 314.243C834.947 313.154 834.87 311.605 834.696 310.22C833.822 303.316 831.635 296.643 828.252 290.561C830.817 290.889 833.608 291.173 835.821 289.836C837.061 289.088 838.547 286.85 837.932 285.326C836.96 282.917 835.204 284.945 833.024 284.542Z" fill="#3F3D56"/>
        <path d="M504.193 322.513C504.5 324.159 504.802 325.893 504.262 327.478C503.723 329.063 502.025 330.388 500.423 329.902C499.179 329.525 498.46 328.274 497.577 327.321C492.665 322.019 481.584 325.089 478.55 318.529C477.311 315.852 478.153 312.645 477.308 309.819C476.775 308.186 475.715 306.776 474.294 305.811C472.873 304.845 471.171 304.379 469.456 304.486C467.892 304.712 466.37 305.166 464.938 305.834C455.344 309.676 445.273 312.195 435.001 313.321C433.048 313.44 431.117 313.791 429.248 314.368C425.03 315.897 422.148 319.807 420.097 323.797C418.046 327.786 416.532 332.106 413.782 335.651C410.893 339.376 406.843 341.985 403.065 344.807C401.61 345.744 400.399 347.014 399.53 348.512C398.711 350.193 398.757 352.148 398.821 354.017L399.593 376.715C399.692 379.634 399.817 382.658 401.124 385.271C402.756 388.533 405.979 390.67 408.216 393.552C410.498 396.514 411.687 400.173 411.581 403.911C411.534 405.413 411.384 407.191 412.555 408.134C413.267 408.596 414.1 408.836 414.948 408.823L445.655 411.336C451.057 411.778 457.043 412.505 460.57 416.619C462.234 418.561 463.571 421.354 466.12 421.563C467.214 421.652 468.278 421.203 469.372 421.116C472.131 420.898 474.555 422.992 476.085 425.299C478.4 428.814 479.451 433.013 479.065 437.204C478.815 439.836 477.999 442.394 477.823 445.031C477.153 455.066 485.661 463.784 485.826 473.84C485.923 479.755 483.115 485.282 480.377 490.526C484.796 497.219 481.178 506.132 482.937 513.957C484.606 521.381 490.796 527.192 492.339 534.643C493.045 538.054 493.086 542.252 496.094 544.009C497.414 544.652 498.877 544.945 500.343 544.86C509.185 544.964 517.927 542.975 525.852 539.053C529.572 537.207 533.427 534.452 534.077 530.351C534.601 527.044 532.923 523.345 534.63 520.464C536.642 517.069 541.796 517.338 544.756 514.728C549.558 510.493 545.813 502.417 547.759 496.317C549.508 490.834 555.528 487.922 558.513 483.001C559.687 480.885 560.53 478.601 561.012 476.229C562.379 470.56 563.23 464.779 563.554 458.957C563.634 455.42 563.894 451.889 564.336 448.378C567.553 428.391 587.315 415.007 593.731 395.806C594.343 393.973 594.631 391.53 593 390.493C592.032 390.031 590.935 389.916 589.893 390.167L575.737 391.952C573.979 392.173 572.116 392.381 570.501 391.65C568.886 390.92 567.729 388.878 568.585 387.327C570.99 382.972 566.044 377.47 563.847 373.007C557.93 360.992 550.884 349.565 542.803 338.883C542.286 338.334 541.962 337.631 541.881 336.88L545.898 337.014C544.542 332.149 542.304 326.824 537.576 325.044C534.912 324.041 531.962 324.388 529.12 324.543C520.979 324.988 512.251 323.759 504.193 322.513Z" fill="#3F3D56"/>
        <path d="M529.127 212.865C531.257 215.127 533.644 217.525 536.727 217.92C542.171 218.616 546.085 212.987 548.578 208.097C548.67 209.344 549.245 210.505 550.18 211.334C551.116 212.163 552.338 212.595 553.586 212.537C554.93 212.311 556.213 211.81 557.354 211.065C568.141 205.17 580.223 202.047 592.515 201.976C592.397 201.045 592.628 200.103 593.164 199.332C593.699 198.562 594.501 198.016 595.415 197.802C597.914 197.307 600.165 199.467 601.371 201.711C602.577 203.956 603.328 206.557 605.244 208.237C607.159 209.917 610.868 209.844 611.625 207.411C612.351 205.076 609.918 203.084 607.896 201.707C605.874 200.33 603.743 197.782 605.105 195.75C615.433 193.464 625.825 191.169 636.394 190.715C638.193 190.777 639.986 190.468 641.661 189.807C643.272 189.017 644.553 187.221 644.12 185.479C641.814 186.022 639.398 185.865 637.181 185.029C634.965 184.192 633.047 182.715 631.673 180.785C646.338 179.575 661.935 178.544 674.931 185.443C676.491 188.791 668.542 191.576 670.669 194.595C671.347 195.558 672.706 195.671 673.884 195.693C682.915 195.861 691.998 196.025 700.928 194.662C704.191 194.164 707.487 193.46 710.763 193.864C716.22 194.537 720.887 198.178 726.255 199.365C728.44 199.848 730.89 199.864 732.732 198.594C734.574 197.323 735.366 194.429 733.856 192.777C738.911 187.824 747.3 189.052 753.968 191.423C760.636 193.795 766.953 197.619 774.011 198.147C779.072 198.527 784.203 197.165 789.204 198.031C792.347 198.574 795.272 199.972 798.343 200.831C804.152 202.455 810.297 202.112 816.329 202.191C831.718 202.398 846.939 205.422 861.238 211.113C863.098 211.719 864.802 212.726 866.23 214.063C867.561 215.487 868.239 217.701 867.345 219.433L852.569 217.274C853.961 220.015 857.563 220.482 860.488 221.427C863.413 222.372 866.445 225.602 864.688 228.124C861.518 227.115 858.647 230.283 857.046 233.198C855.445 236.113 853.494 239.604 850.173 239.781C847.199 239.94 843.602 237.408 841.664 239.669C844.342 243.047 846.635 246.713 848.501 250.599C850.416 254.589 851.78 259.615 849.192 263.205C848.785 263.846 848.167 264.325 847.445 264.559C845.331 265.094 843.957 262.509 842.441 260.941C840.531 258.966 837.642 258.407 835.054 257.48C832.467 256.554 829.742 254.732 829.539 251.992C829.414 250.287 830.314 248.702 830.977 247.126C832.091 244.47 832.579 241.593 832.401 238.718C832.256 236.406 831.608 234 829.946 232.384C828.285 230.768 825.417 230.255 823.634 231.735C822.802 232.426 822.135 233.53 821.054 233.572C819.145 233.645 817.679 230.316 816.143 231.453C816.323 232.663 816.072 233.899 815.434 234.943C810.85 238.929 803.807 237.243 797.898 238.651C795.088 239.455 792.397 240.63 789.897 242.144C788.962 242.544 788.167 243.212 787.611 244.064C786.873 245.497 787.686 247.333 788.987 248.286C790.365 249.131 791.915 249.66 793.523 249.834C800.728 251.198 808.037 253.311 813.725 257.938C819.413 262.565 823.143 270.213 821.343 277.321L807.136 263.746C807.675 269.446 807.982 275.161 808.054 280.892C808.146 282.011 807.993 283.137 807.604 284.19C806.591 286.427 803.846 287.18 801.44 287.674C800.771 287.801 800.137 288.068 799.578 288.458C799.02 288.847 798.55 289.351 798.2 289.935C797.85 290.519 797.628 291.171 797.547 291.847C797.467 292.523 797.531 293.209 797.734 293.859C798.589 296.644 800.72 298.816 802.671 300.98C804.622 303.144 806.543 305.603 806.798 308.506C807.054 311.408 804.864 314.68 801.957 314.478C799.753 314.325 798.118 312.352 797.178 310.353C796.238 308.355 795.679 306.128 794.266 304.43C789.992 299.289 780.39 301.491 776.561 296.011C775.584 297.118 774.907 298.457 774.594 299.899C774.281 301.341 774.341 302.84 774.77 304.252C776.551 303.137 778.99 304.173 780.329 305.793C781.667 307.414 782.299 309.491 783.35 311.311C784.768 313.767 787.026 315.944 787.224 318.773C787.171 319.842 787.189 320.914 787.278 321.982C787.629 323.696 789.078 324.927 790.083 326.36C792.421 329.693 792.305 334.273 790.798 338.056C789.292 341.838 786.585 344.999 783.904 348.063C779.221 353.416 774.442 358.737 768.89 363.182C767.306 364.45 765.615 365.697 764.629 367.47C763.642 369.244 763.591 371.733 765.108 373.081C764.023 373.136 762.077 373.669 760.992 373.724C760.611 369.372 760.528 365 760.744 360.637C756.463 358.581 751.853 364.086 752.406 368.802C752.958 373.519 756.37 377.304 758.799 381.384C760.575 384.368 761.895 387.847 761.302 391.269C760.709 394.691 757.655 397.847 754.195 397.545C748.692 397.065 746.39 389.166 740.94 388.262C740.459 388.149 739.955 388.199 739.506 388.404C738.697 388.848 738.556 389.93 738.511 390.852C738.288 395.375 738.095 400.078 739.861 404.248C742.444 410.348 749.118 415.472 747.718 421.948C740.176 418.442 736.255 409.986 734.475 401.864C732.695 393.741 732.398 385.214 729.207 377.535C726.783 380.64 721.69 378.073 719.476 374.815C717.377 371.726 716.085 368.153 714.048 365.023C712.012 361.893 708.892 359.09 705.161 358.918C701.25 358.737 697.857 361.421 694.874 363.957C692.421 366.042 689.902 368.21 688.468 371.092C686.382 375.287 686.927 380.232 686.827 384.916C686.718 389.98 685.645 395.323 682.193 399.03C678.742 402.737 672.371 404.028 668.564 400.687C666.576 398.943 665.614 396.337 664.757 393.835C660.625 381.777 657.183 369.494 654.45 357.044C653.81 359.886 651.315 363.548 648.931 361.874C648.396 361.424 647.962 360.866 647.659 360.236C643.212 352.7 634.978 348.18 626.657 345.47C618.337 342.76 609.583 341.496 601.355 338.517C596.744 336.847 592.34 334.654 588.23 331.98C587.182 333.519 586.57 335.313 586.459 337.172C586.348 339.031 586.742 340.885 587.599 342.538C589.424 345.769 593.554 347.639 597.09 346.51C598.917 345.926 600.459 344.658 602.272 344.031C604.085 343.405 606.518 343.713 607.311 345.459C608.07 347.131 606.923 349.153 607.492 350.898C608.358 353.556 612.368 353.761 613.77 356.18C614.813 357.98 613.955 360.37 612.465 361.822C610.976 363.274 608.988 364.071 607.17 365.082C601.271 368.362 597.076 373.961 591.92 378.318C586.764 382.674 579.49 385.855 573.345 383.06C574.81 375.645 565.976 370.2 564.35 362.818C563.815 360.388 564.093 357.807 563.329 355.439C562.223 352.011 559.181 349.654 556.686 347.056C553.659 343.871 551.301 340.111 549.751 336C548.201 331.889 547.49 327.509 547.66 323.118C547.795 320.067 548.356 316.967 547.661 313.993C546.965 311.019 544.503 308.141 541.452 308.276C534.483 308.583 525.703 309.102 522.047 303.161C520.742 301.041 520.174 297.936 522.061 296.312C523.392 295.166 525.356 295.274 527.104 295.446L542.807 296.991C546.479 297.352 550.449 297.65 553.601 295.73C556.752 293.81 558.118 288.715 555.2 286.456C553.067 284.806 549.247 284.895 548.627 282.271C548.111 280.086 550.53 277.607 549.224 275.78C548.287 274.471 546.181 274.834 544.905 275.816C543.628 276.797 542.702 278.233 541.274 278.976C538.768 280.28 535.775 279.039 533.079 278.196C530.383 277.353 526.769 277.281 525.462 279.784C523.999 282.584 526.759 286.253 525.307 289.058C523.389 292.768 516.891 290.656 514.196 293.847C511.104 297.508 516.3 302.967 515.258 307.644C513.926 308.303 512.447 308.606 510.964 308.523C509.48 308.439 508.044 307.973 506.795 307.169C505.566 306.333 504.587 305.18 503.962 303.833C503.336 302.485 503.088 300.993 503.243 299.516C503.501 297.412 504.598 295.264 503.863 293.276C503.268 291.668 501.654 290.711 500.154 289.882L484.895 281.451C483.478 284.079 485.269 287.337 487.509 289.31C489.749 291.284 492.555 292.771 494.026 295.368C494.957 297.168 495.166 299.255 494.61 301.203C494.053 303.151 492.774 304.814 491.034 305.851C490.816 306.002 490.568 306.103 490.306 306.149C490.045 306.194 489.777 306.183 489.521 306.115C489.278 305.972 489.066 305.782 488.897 305.555C488.729 305.328 488.607 305.07 488.54 304.796C485.848 297.907 481.806 291.115 475.343 287.516C468.881 283.917 459.594 284.657 455.357 290.719C454.35 292.159 453.674 293.801 452.798 295.323C448.139 303.411 438.151 307.241 428.82 306.991C427.907 307.041 426.999 306.828 426.204 306.376C424.696 305.335 424.764 303.125 424.995 301.307L425.975 293.592C426.171 292.043 426.456 290.33 427.683 289.363C429.411 288 431.905 288.86 434.106 288.828C435.774 288.75 437.378 288.161 438.7 287.141C440.021 286.121 440.998 284.72 441.496 283.126C441.941 281.517 441.938 279.817 441.488 278.21C441.037 276.602 440.157 275.148 438.942 274.003C437.933 273.056 436.578 271.865 437.111 270.588C437.324 270.235 437.611 269.932 437.953 269.702C438.296 269.471 438.684 269.319 439.091 269.255C443.046 268.107 447.224 267.806 451.112 266.451C455.001 265.096 458.772 262.324 459.693 258.311C459.975 257.081 460.103 255.592 461.208 254.982C461.762 254.748 462.358 254.626 462.959 254.624C465.067 254.324 466.987 253.246 468.34 251.602C469.693 249.958 470.381 247.867 470.269 245.741C472.133 244.439 474.744 245.397 476.547 246.781C478.349 248.166 479.941 249.996 482.135 250.593C486.223 251.705 490.173 248.086 494.41 248.069C496.192 248.062 498.036 248.692 499.712 248.088C501.411 247.476 502.426 245.785 503.73 244.535C505.034 243.286 507.322 242.524 508.527 243.87L507.501 236.275C509.566 236.797 511.719 236.87 513.815 236.491C515.911 236.113 517.902 235.29 519.654 234.078L506.401 229.601C505.939 229.485 505.513 229.258 505.161 228.938C504.198 227.901 505.155 226.284 505.938 225.105C507.813 222.283 508.127 217.636 505.045 216.232C502.941 215.273 500.526 216.424 498.507 217.55L488.834 222.943C488.526 224.781 490.775 225.823 492.168 227.062C493.011 227.811 493.608 228.797 493.88 229.892C494.152 230.986 494.086 232.138 493.692 233.194C493.297 234.251 492.593 235.163 491.67 235.812C490.747 236.461 489.65 236.815 488.522 236.829C489.159 237.657 489.602 238.618 489.817 239.64C490.033 240.662 490.015 241.72 489.767 242.735L483.258 243.203C482.528 243.35 481.769 243.201 481.147 242.791C480.451 242.172 480.546 241.089 480.384 240.172C479.995 237.96 477.828 236.409 475.616 236.011C473.405 235.614 471.143 236.123 468.953 236.627C468.023 236.961 467.002 236.938 466.088 236.56C465.564 236.22 465.166 235.718 464.955 235.13C463.995 232.803 464.892 230.067 466.434 228.076C467.976 226.086 470.087 224.631 471.983 222.973C476.516 218.996 479.847 213.83 481.599 208.06C485.182 206.559 488.891 204.519 492.474 203.018C497.998 200.222 504.192 199.022 510.361 199.553L522.494 199.785C526.086 199.854 529.776 199.942 533.098 201.311C536.419 202.68 539.338 205.642 539.567 209.227C539.637 209.633 539.602 210.05 539.465 210.439C539.329 210.827 539.097 211.175 538.789 211.449C538.32 211.705 537.789 211.825 537.255 211.795C533.905 211.912 532.477 212.747 529.127 212.865Z" fill="#3F3D56"/>
        <path d="M432.415 250.887C432.889 250.439 433.23 249.868 433.401 249.238C433.572 248.608 433.565 247.944 433.383 247.317C432.229 246.872 430.975 246.758 429.76 246.987C428.545 247.216 427.418 247.78 426.506 248.615C425.787 249.342 425.168 250.161 424.664 251.051C423.069 253.652 421.659 256.758 422.583 259.666C422.659 259.983 422.796 260.282 422.989 260.545C423.181 260.808 423.424 261.03 423.703 261.198C424.118 261.364 424.564 261.434 425.009 261.402C426.766 261.4 428.52 261.292 430.264 261.079C431.334 260.948 432.578 260.646 432.992 259.65C433.536 258.34 432.219 256.859 432.603 255.494C432.855 254.883 433.238 254.336 433.724 253.888C433.965 253.663 434.151 253.385 434.265 253.076C434.38 252.766 434.421 252.434 434.385 252.106C434.23 251.466 433.25 251.103 432.897 251.659" fill="#3F3D56"/>
        <path d="M441.523 239.081C439.962 238.722 438.354 238.621 436.761 238.782C436.409 238.771 436.06 238.85 435.746 239.012C435.443 239.236 435.223 239.554 435.121 239.917C434.785 240.997 434.867 242.164 435.353 243.185C435.838 244.207 436.69 245.008 437.74 245.429C438.312 245.561 438.86 245.781 439.364 246.082C440.711 247.127 439.852 249.262 440.107 250.947C440.394 252.84 442.225 254.428 441.89 256.312C441.625 257.796 440.039 258.972 440.295 260.458C440.562 262.014 442.537 262.482 444.112 262.607C445.024 262.766 445.963 262.659 446.816 262.297C447.671 261.712 448.278 260.832 448.522 259.826C449.167 257.908 449.438 255.884 449.32 253.863C449.313 252.944 449.082 252.041 448.648 251.231C448.174 250.59 447.648 249.988 447.076 249.432C444.06 245.924 447.236 240.69 441.523 239.081Z" fill="#3F3D56"/>
        <path opacity="0.8" d="M838.186 513.917C838.186 513.917 607.152 381.314 507.689 406.439C507.689 406.439 296.898 429.121 272.468 479.022C272.468 479.022 205.461 269.649 181.032 262.67" stroke="#6C63FF" stroke-width="2" stroke-miterlimit="10"/>
        <path opacity="0.8" d="M272.468 479.022C311.206 375.731 660.199 261.274 660.199 261.274C610.642 273.836 507.689 406.439 507.689 406.439C507.689 406.439 289.918 248.014 181.032 262.67C181.032 262.67 660.548 278.373 838.186 513.917" stroke="#6C63FF" stroke-width="2" stroke-miterlimit="10"/>
        <path d="M181.032 272.79C186.621 272.79 191.153 268.259 191.153 262.67C191.153 257.081 186.621 252.55 181.032 252.55C175.442 252.55 170.911 257.081 170.911 262.67C170.911 268.259 175.442 272.79 181.032 272.79Z" fill="#6C63FF"/>
        <path d="M272.468 489.141C278.058 489.141 282.589 484.611 282.589 479.022C282.589 473.433 278.058 468.902 272.468 468.902C266.878 468.902 262.347 473.433 262.347 479.022C262.347 484.611 266.878 489.141 272.468 489.141Z" fill="#6C63FF"/>
        <path d="M660.199 271.394C665.789 271.394 670.32 266.863 670.32 261.274C670.32 255.685 665.789 251.154 660.199 251.154C654.61 251.154 650.079 255.685 650.079 261.274C650.079 266.863 654.61 271.394 660.199 271.394Z" fill="#6C63FF"/>
        <path d="M838.186 524.037C843.775 524.037 848.307 519.506 848.307 513.917C848.307 508.328 843.775 503.797 838.186 503.797C832.596 503.797 828.065 508.328 828.065 513.917C828.065 519.506 832.596 524.037 838.186 524.037Z" fill="#6C63FF"/>
        <path d="M507.689 416.559C513.279 416.559 517.81 412.028 517.81 406.439C517.81 400.85 513.279 396.319 507.689 396.319C502.1 396.319 497.569 400.85 497.569 406.439C497.569 412.028 502.1 416.559 507.689 416.559Z" fill="#6C63FF"/>
    </g>
    <defs>
        <clipPath id="clip0_12_154">
            <rect width="995" height="739" fill="white"/>
        </clipPath>
    </defs>
</svg>
