<svg width="618" height="323" viewBox="0 0 618 323" fill="none" xmlns="http://www.w3.org/2000/svg">
    <g clip-path="url(#clip0_14_148)">
        <path d="M309 288.704C479.656 288.704 618 284.79 618 279.961C618 275.133 479.656 271.218 309 271.218C138.344 271.218 0 275.133 0 279.961C0 284.79 138.344 288.704 309 288.704Z" fill="#E6E6E6"/>
        <path d="M473.675 185.224C473.285 185.23 472.895 185.235 472.499 185.235C472.104 185.235 471.714 185.23 471.323 185.224C450.639 184.749 435.647 171.676 439.463 157.959L448.768 124.499L451.12 116.032L492.81 116.751L495.343 125.034L505.317 157.635C509.539 171.427 494.547 184.749 473.675 185.224Z" fill="#3F3D56"/>
        <path opacity="0.2" d="M495.343 125.034C488.235 129.144 480.171 131.261 471.984 131.167C463.797 131.073 455.783 128.771 448.768 124.499L451.12 116.032L492.81 116.751L495.343 125.034Z" fill="black"/>
        <path d="M493.584 159.07C495.385 152.28 501.303 142.486 517.903 130.678C546.853 110.08 529.583 94.6363 528.834 93.9891C527.265 92.6318 527.496 91.1078 529.374 90.5871C530.464 90.3666 531.588 90.3844 532.671 90.6394C533.755 90.8944 534.771 91.3807 535.653 92.0656C536.591 92.8498 558.216 111.53 525.549 134.769C496.149 155.687 502.4 169.341 502.472 169.472C503.259 170.932 501.996 172.101 499.647 172.085C497.299 172.069 494.754 170.874 493.964 169.415C493.798 169.106 491.906 165.39 493.584 159.07Z" fill="#3F3D56"/>
        <path d="M453.258 190.101C452.626 190.101 452.001 189.975 451.417 189.731C450.834 189.486 450.303 189.128 449.857 188.676C449.41 188.224 449.056 187.688 448.814 187.097C448.572 186.507 448.448 185.874 448.448 185.235V164.15C448.448 162.86 448.954 161.622 449.857 160.709C450.759 159.797 451.982 159.284 453.258 159.284C454.534 159.284 455.757 159.797 456.659 160.709C457.562 161.622 458.068 162.86 458.068 164.15V185.235C458.068 185.874 457.944 186.507 457.702 187.097C457.46 187.688 457.106 188.224 456.659 188.676C456.213 189.128 455.682 189.486 455.099 189.731C454.515 189.975 453.89 190.101 453.258 190.101Z" fill="#3F3D56"/>
        <path d="M457.476 140.044C457.212 140.624 456.837 141.146 456.374 141.58C455.91 142.015 455.366 142.352 454.774 142.574C454.181 142.795 453.552 142.897 452.92 142.872C452.289 142.848 451.669 142.697 451.095 142.43L432.158 133.617C431.001 133.077 430.102 132.094 429.661 130.884C429.219 129.674 429.271 128.337 429.803 127.165C430.336 125.994 431.307 125.084 432.503 124.636C433.698 124.188 435.021 124.239 436.179 124.776L455.116 133.589C455.69 133.857 456.206 134.235 456.635 134.704C457.065 135.173 457.398 135.723 457.617 136.322C457.836 136.922 457.937 137.559 457.912 138.197C457.888 138.836 457.74 139.463 457.476 140.044Z" fill="#3F3D56"/>
        <path d="M487.523 140.044C487.787 140.624 488.162 141.146 488.625 141.58C489.089 142.015 489.632 142.352 490.225 142.574C490.817 142.795 491.447 142.897 492.078 142.872C492.71 142.847 493.33 142.697 493.904 142.43L512.84 133.617C513.999 133.078 514.899 132.095 515.342 130.884C515.784 129.674 515.733 128.335 515.2 127.163C514.667 125.991 513.695 125.081 512.498 124.633C511.302 124.185 509.978 124.237 508.819 124.776L489.882 133.589C489.309 133.856 488.792 134.235 488.363 134.704C487.934 135.173 487.6 135.723 487.381 136.322C487.162 136.922 487.062 137.559 487.086 138.197C487.111 138.836 487.259 139.463 487.523 140.044Z" fill="#3F3D56"/>
        <path d="M491.741 190.101C492.372 190.101 492.998 189.975 493.582 189.731C494.165 189.486 494.695 189.128 495.142 188.676C495.589 188.224 495.943 187.688 496.185 187.097C496.427 186.507 496.551 185.874 496.551 185.235V164.15C496.551 162.86 496.044 161.622 495.142 160.709C494.24 159.797 493.016 159.284 491.741 159.284C490.465 159.284 489.241 159.797 488.339 160.709C487.437 161.622 486.93 162.86 486.93 164.15V185.235C486.93 185.874 487.055 186.507 487.296 187.097C487.538 187.688 487.893 188.224 488.339 188.676C488.786 189.128 489.316 189.486 489.9 189.731C490.483 189.975 491.109 190.101 491.741 190.101Z" fill="#3F3D56"/>
        <path d="M511.844 53.5953C512.259 53.0657 512.56 52.4529 512.724 51.7974C512.889 51.142 512.914 50.4586 512.798 49.7925L510.18 34.2134L507.562 18.6344C507.421 17.7932 507.063 17.0045 506.525 16.3475C505.987 15.6905 505.287 15.1885 504.496 14.8917C503.705 14.595 502.851 14.514 502.02 14.657C501.188 14.8 500.408 15.1619 499.759 15.7063L487.73 25.7893L480.483 31.8639C475.65 30.9946 470.71 30.9192 465.853 31.6407L458.872 25.7893L446.843 15.7063C446.194 15.1619 445.414 14.8 444.582 14.657C443.751 14.514 442.897 14.595 442.106 14.8917C441.315 15.1885 440.615 15.6906 440.077 16.3475C439.539 17.0045 439.181 17.7932 439.04 18.6344L436.422 34.2135L433.804 49.7925C433.664 50.6113 433.736 51.4528 434.013 52.235C429.527 59.1924 426.965 67.2389 426.594 75.5373C426.224 83.8357 428.058 92.0829 431.907 99.421C435.756 106.759 441.478 112.92 448.478 117.263C455.478 121.606 463.501 123.972 471.712 124.116C479.923 124.259 488.022 122.175 495.167 118.079C502.311 113.983 508.24 108.026 512.337 100.827C516.434 93.6275 518.549 85.4493 518.462 77.1429C518.376 68.8365 516.09 60.7054 511.844 53.5953Z" fill="#3F3D56"/>
        <path d="M445.638 22.0903C445.352 22.0907 445.069 22.1427 444.802 22.2437C444.409 22.3884 444.062 22.6363 443.795 22.962C443.528 23.2876 443.351 23.6792 443.284 24.0966L440.109 42.9892C440.039 43.4057 440.079 43.8335 440.224 44.2295C440.369 44.6256 440.615 44.976 440.937 45.2455C441.258 45.515 441.644 45.6942 442.056 45.7649C442.468 45.8357 442.891 45.7956 443.282 45.6487L461.044 38.9835C461.436 38.8366 461.782 38.588 462.048 38.2628C462.315 37.9376 462.492 37.5472 462.562 37.1308C462.632 36.7144 462.592 36.2867 462.447 35.8907C462.302 35.4947 462.056 35.1443 461.735 34.8748L447.147 22.6471C446.724 22.2884 446.19 22.0914 445.638 22.0903Z" fill="#E6E6E6"/>
        <path d="M500.964 22.0903C500.412 22.0914 499.878 22.2884 499.455 22.6471L484.867 34.8748C484.546 35.1443 484.3 35.4947 484.155 35.8907C484.01 36.2867 483.97 36.7144 484.04 37.1308C484.11 37.5472 484.287 37.9376 484.554 38.2628C484.82 38.588 485.166 38.8366 485.558 38.9835L503.32 45.6487C503.712 45.7956 504.134 45.8357 504.546 45.7649C504.958 45.6942 505.344 45.515 505.665 45.2455C505.987 44.976 506.233 44.6256 506.378 44.2295C506.523 43.8335 506.563 43.4057 506.493 42.9892L503.318 24.0966C503.251 23.6792 503.074 23.2876 502.807 22.962C502.541 22.6363 502.193 22.3884 501.8 22.2437C501.533 22.1427 501.25 22.0907 500.964 22.0903Z" fill="#E6E6E6"/>
        <path d="M472.499 90.6218C476.042 90.6218 478.913 87.7171 478.913 84.134C478.913 80.5509 476.042 77.6462 472.499 77.6462C468.957 77.6462 466.086 80.5509 466.086 84.134C466.086 87.7171 468.957 90.6218 472.499 90.6218Z" fill="#E6E6E6"/>
        <path d="M472.499 82.5121C474.861 82.5121 476.775 81.7859 476.775 80.8901C476.775 79.9944 474.861 79.2682 472.499 79.2682C470.138 79.2682 468.223 79.9944 468.223 80.8901C468.223 81.7859 470.138 82.5121 472.499 82.5121Z" fill="#3F3D56"/>
        <path d="M469.292 87.9186H475.172V95.2173C475.172 95.6078 475.096 95.9945 474.948 96.3553C474.8 96.716 474.584 97.0438 474.311 97.32C474.038 97.5961 473.714 97.8151 473.357 97.9646C473 98.114 472.618 98.1909 472.232 98.1909C471.452 98.1909 470.705 97.8776 470.153 97.32C469.602 96.7623 469.292 96.006 469.292 95.2173L469.292 87.9186Z" fill="#FF6584"/>
        <path d="M472.856 14.3293C472.548 14.976 472.249 15.6298 471.967 16.2968C468.65 24.122 467.531 32.7211 468.734 41.1479C469.336 40.2647 469.968 39.3446 470.612 38.4143C469.234 30.3267 470.009 22.014 472.856 14.3293Z" fill="#3F3D56"/>
        <path d="M477.667 20.2764C477.358 20.9231 477.059 21.5768 476.777 22.2438C473.46 30.069 472.342 38.6681 473.545 47.0949C474.146 46.2117 474.779 45.2916 475.422 44.3613C474.044 36.2738 474.819 27.961 477.667 20.2764Z" fill="#3F3D56"/>
        <path d="M492.497 137.031L491.82 128.313L491.142 119.596C491.105 119.125 490.947 118.673 490.683 118.283C490.418 117.894 490.057 117.582 489.636 117.379C489.215 117.176 488.748 117.088 488.283 117.125C487.817 117.162 487.37 117.323 486.985 117.59L479.861 122.542L474.658 126.159C474.326 125.765 473.913 125.449 473.448 125.232C472.983 125.015 472.477 124.903 471.965 124.903C471.453 124.903 470.947 125.015 470.482 125.232C470.017 125.449 469.604 125.765 469.272 126.159L464.069 122.542L456.945 117.59C456.56 117.323 456.112 117.162 455.647 117.125C455.182 117.088 454.715 117.176 454.294 117.379C453.872 117.582 453.512 117.894 453.247 118.283C452.983 118.673 452.824 119.125 452.788 119.596L452.11 128.313L451.432 137.031C451.396 137.501 451.482 137.973 451.683 138.4C451.884 138.826 452.193 139.191 452.577 139.458C452.962 139.726 453.41 139.886 453.875 139.923C454.34 139.96 454.807 139.872 455.228 139.669L463.03 135.904L469.441 132.81C469.771 133.148 470.164 133.417 470.597 133.6C471.03 133.783 471.495 133.878 471.965 133.878C472.434 133.878 472.899 133.783 473.333 133.6C473.766 133.417 474.159 133.148 474.489 132.81L480.899 135.904L488.702 139.669C489.123 139.872 489.59 139.96 490.055 139.923C490.52 139.886 490.968 139.726 491.352 139.458C491.737 139.191 492.045 138.826 492.246 138.4C492.447 137.973 492.534 137.501 492.497 137.031Z" fill="#1C43CC"/>
        <path d="M463.948 78.7275C464.833 78.7275 465.551 78.0014 465.551 77.1056C465.551 76.2098 464.833 75.4836 463.948 75.4836C463.062 75.4836 462.344 76.2098 462.344 77.1056C462.344 78.0014 463.062 78.7275 463.948 78.7275Z" fill="#E6E6E6"/>
        <path d="M481.051 78.7275C481.937 78.7275 482.655 78.0014 482.655 77.1056C482.655 76.2098 481.937 75.4836 481.051 75.4836C480.166 75.4836 479.448 76.2098 479.448 77.1056C479.448 78.0014 480.166 78.7275 481.051 78.7275Z" fill="#E6E6E6"/>
        <path d="M162.255 170.895C162.645 170.901 163.035 170.906 163.431 170.906C163.826 170.906 164.216 170.901 164.607 170.895C185.291 170.419 200.283 157.347 196.467 143.63L187.162 110.17L184.81 101.703L143.12 102.422L140.587 110.705L130.613 143.306C126.391 157.098 141.383 170.419 162.255 170.895Z" fill="#3F3D56"/>
        <path opacity="0.2" d="M140.587 110.705C147.695 114.815 155.759 116.932 163.946 116.838C172.134 116.744 180.148 114.442 187.162 110.17L184.81 101.703L143.12 102.422L140.587 110.705Z" fill="black"/>
        <path d="M137.283 140.775C132.783 135.418 123.29 129.128 103.292 125.639C68.4136 119.553 77.4892 98.1197 77.8919 97.2109C78.7366 95.3046 77.8823 94.0275 75.9655 94.3693C74.8867 94.642 73.8779 95.1448 73.0069 95.8441C72.1359 96.5433 71.4227 97.4229 70.9151 98.4237C70.3997 99.5383 58.7564 125.782 98.1125 132.647C133.533 138.827 133.659 153.874 133.65 154.024C133.556 155.684 135.192 156.194 137.308 155.163C139.424 154.132 141.218 151.95 141.315 150.29C141.335 149.939 141.473 145.761 137.283 140.775Z" fill="#3F3D56"/>
        <path d="M182.672 175.772C183.304 175.772 183.929 175.646 184.513 175.401C185.097 175.157 185.627 174.799 186.074 174.347C186.52 173.895 186.875 173.358 187.116 172.768C187.358 172.178 187.483 171.545 187.482 170.906V149.821C187.481 148.531 186.973 147.295 186.072 146.384C185.17 145.473 183.947 144.961 182.672 144.961C181.397 144.961 180.175 145.473 179.273 146.384C178.371 147.295 177.863 148.531 177.862 149.821V170.906C177.862 171.545 177.986 172.178 178.228 172.768C178.47 173.358 178.824 173.895 179.271 174.347C179.717 174.799 180.248 175.157 180.831 175.401C181.415 175.646 182.04 175.772 182.672 175.772Z" fill="#3F3D56"/>
        <path d="M178.455 125.714C178.719 126.295 179.093 126.817 179.557 127.251C180.02 127.685 180.564 128.023 181.156 128.244C181.749 128.466 182.379 128.567 183.01 128.543C183.641 128.518 184.261 128.368 184.835 128.101L203.772 119.288C204.346 119.021 204.863 118.643 205.293 118.174C205.723 117.705 206.057 117.155 206.277 116.555C206.496 115.956 206.597 115.318 206.573 114.679C206.549 114.04 206.4 113.412 206.136 112.832C205.872 112.251 205.497 111.728 205.033 111.294C204.569 110.86 204.025 110.522 203.432 110.301C202.839 110.079 202.209 109.978 201.577 110.003C200.945 110.028 200.325 110.179 199.751 110.447L180.814 119.26C180.24 119.527 179.724 119.906 179.295 120.375C178.866 120.844 178.532 121.394 178.313 121.993C178.094 122.592 177.993 123.229 178.018 123.868C178.042 124.506 178.19 125.134 178.455 125.714Z" fill="#3F3D56"/>
        <path d="M148.407 125.714C148.143 126.295 147.769 126.817 147.305 127.251C146.842 127.685 146.298 128.023 145.705 128.244C145.113 128.466 144.483 128.567 143.852 128.543C143.221 128.518 142.6 128.368 142.027 128.101L123.09 119.288C122.515 119.021 121.998 118.643 121.568 118.174C121.139 117.705 120.804 117.155 120.585 116.555C120.365 115.956 120.265 115.318 120.289 114.679C120.313 114.04 120.462 113.412 120.726 112.832C120.99 112.251 121.365 111.728 121.829 111.294C122.293 110.86 122.837 110.522 123.43 110.301C124.023 110.079 124.653 109.978 125.285 110.003C125.916 110.028 126.537 110.179 127.111 110.447L146.048 119.26C146.622 119.527 147.138 119.906 147.567 120.375C147.996 120.844 148.33 121.394 148.549 121.993C148.768 122.592 148.868 123.229 148.844 123.868C148.82 124.506 148.671 125.134 148.407 125.714Z" fill="#3F3D56"/>
        <path d="M144.189 175.772C143.558 175.772 142.932 175.646 142.349 175.401C141.765 175.157 141.235 174.799 140.788 174.347C140.341 173.895 139.987 173.358 139.745 172.768C139.504 172.178 139.379 171.545 139.379 170.906V149.821C139.381 148.531 139.888 147.295 140.79 146.384C141.692 145.473 142.915 144.961 144.189 144.961C145.464 144.961 146.687 145.473 147.589 146.384C148.491 147.295 148.998 148.531 149 149.821V170.906C149 171.545 148.875 172.178 148.634 172.768C148.392 173.358 148.038 173.895 147.591 174.347C147.144 174.799 146.614 175.157 146.03 175.401C145.447 175.646 144.821 175.772 144.189 175.772Z" fill="#3F3D56"/>
        <path d="M201.917 37.9057C202.194 37.1235 202.266 36.282 202.126 35.4632L199.508 19.8841L196.89 4.30505C196.749 3.46389 196.391 2.67518 195.853 2.01821C195.315 1.36124 194.615 0.85915 193.824 0.562399C193.033 0.265648 192.179 0.184688 191.348 0.327674C190.516 0.47066 189.736 0.832551 189.087 1.37696L177.058 11.4599L170.077 17.3114C165.22 16.5899 160.28 16.6652 155.447 17.5345L148.2 11.4599L136.171 1.37694C135.522 0.832528 134.742 0.47064 133.91 0.327653C133.079 0.184666 132.225 0.265615 131.434 0.562367C130.643 0.859118 129.943 1.36121 129.405 2.01819C128.867 2.67516 128.509 3.46387 128.368 4.30503L125.75 19.8841L123.132 35.4632C123.016 36.1293 123.041 36.8126 123.206 37.4681C123.371 38.1236 123.671 38.7363 124.086 39.266C119.835 46.3777 117.545 54.5121 117.455 62.8227C117.365 71.1333 119.479 79.3163 123.577 86.5202C127.674 93.7241 133.605 99.6856 140.753 103.784C147.9 107.883 156.003 109.969 164.218 109.826C172.434 109.682 180.46 107.314 187.464 102.968C194.467 98.6219 200.191 92.4567 204.04 85.1139C207.889 77.7711 209.722 69.5191 209.349 61.2166C208.975 52.9141 206.409 44.8646 201.917 37.9057Z" fill="#3F3D56"/>
        <path d="M188.783 8.31786L174.196 20.545C173.874 20.8145 173.628 21.1654 173.483 21.5614C173.338 21.9574 173.298 22.3851 173.368 22.8015C173.438 23.2179 173.615 23.6084 173.882 23.9336C174.148 24.2588 174.494 24.5073 174.886 24.6543L192.648 31.3194C193.04 31.4664 193.462 31.5065 193.874 31.4357C194.286 31.3649 194.672 31.1858 194.993 30.9162C195.315 30.6467 195.561 30.2963 195.706 29.9003C195.851 29.5042 195.891 29.0765 195.821 28.66L192.646 9.76741C192.579 9.35001 192.402 8.95837 192.135 8.63273C191.869 8.30708 191.521 8.05917 191.128 7.91449C190.861 7.81346 190.578 7.76152 190.292 7.76111C189.74 7.76215 189.206 7.95918 188.783 8.31786Z" fill="#E6E6E6"/>
        <path d="M134.13 7.91449C133.737 8.05917 133.39 8.30707 133.123 8.63272C132.856 8.95836 132.68 9.35001 132.612 9.76741L129.437 28.66C129.367 29.0765 129.407 29.5042 129.552 29.9003C129.697 30.2963 129.943 30.6467 130.265 30.9162C130.586 31.1858 130.972 31.3649 131.384 31.4357C131.796 31.5065 132.218 31.4664 132.61 31.3194L150.372 24.6543C150.764 24.5073 151.11 24.2588 151.376 23.9336C151.643 23.6083 151.82 23.2179 151.89 22.8015C151.96 22.3851 151.92 21.9574 151.775 21.5614C151.63 21.1654 151.384 20.8151 151.063 20.5455L136.475 8.31786C136.052 7.95918 135.518 7.76215 134.966 7.76111C134.68 7.76152 134.397 7.81346 134.13 7.91449Z" fill="#E6E6E6"/>
        <path d="M163.431 76.2925C166.973 76.2925 169.845 73.3878 169.845 69.8047C169.845 66.2216 166.973 63.3169 163.431 63.3169C159.889 63.3169 157.017 66.2216 157.017 69.8047C157.017 73.3878 159.889 76.2925 163.431 76.2925Z" fill="#E6E6E6"/>
        <path d="M163.431 68.1827C165.792 68.1827 167.707 67.4566 167.707 66.5608C167.707 65.665 165.792 64.9388 163.431 64.9388C161.069 64.9388 159.155 65.665 159.155 66.5608C159.155 67.4566 161.069 68.1827 163.431 68.1827Z" fill="#3F3D56"/>
        <path d="M163.698 83.8616C163.312 83.8616 162.93 83.7847 162.573 83.6352C162.216 83.4858 161.892 83.2668 161.619 82.9906C161.346 82.7145 161.13 82.3867 160.982 82.0259C160.834 81.6651 160.758 81.2785 160.758 80.888V73.5892H166.638V80.888C166.638 81.2785 166.562 81.6651 166.414 82.0259C166.266 82.3867 166.05 82.7145 165.777 82.9906C165.504 83.2668 165.18 83.4858 164.823 83.6352C164.466 83.7847 164.084 83.8616 163.698 83.8616Z" fill="#FF6584"/>
        <path d="M163.074 0C163.382 0.646704 163.682 1.3004 163.963 1.96747C167.28 9.79262 168.399 18.3917 167.196 26.8185C166.594 25.9353 165.962 25.0152 165.318 24.0849C166.696 15.9974 165.921 7.68468 163.074 0Z" fill="#3F3D56"/>
        <path d="M158.264 5.94714C158.572 6.59385 158.871 7.24755 159.153 7.91461C162.47 15.7398 163.588 24.3389 162.385 32.7657C161.784 31.8825 161.151 30.9624 160.508 30.0321C161.886 21.9445 161.111 13.6318 158.264 5.94714Z" fill="#3F3D56"/>
        <path d="M143.433 28.0879L144.111 19.3705L144.788 10.6531C144.825 10.1825 144.983 9.72981 145.248 9.34069C145.512 8.95157 145.873 8.6397 146.294 8.43641C146.715 8.23312 147.182 8.14558 147.648 8.1826C148.113 8.21961 148.56 8.37987 148.945 8.64727L156.07 13.5996L161.272 17.2159C161.605 16.8221 162.018 16.5059 162.483 16.2891C162.947 16.0723 163.453 15.96 163.965 15.96C164.477 15.96 164.983 16.0723 165.448 16.2891C165.913 16.5059 166.326 16.8221 166.659 17.2159L171.861 13.5996L178.986 8.64727C179.37 8.37987 179.818 8.21961 180.283 8.1826C180.748 8.14558 181.215 8.23312 181.637 8.43641C182.058 8.6397 182.419 8.95157 182.683 9.34069C182.947 9.72981 183.106 10.1825 183.142 10.6531L183.82 19.3705L184.498 28.0879C184.534 28.5585 184.448 29.0307 184.247 29.4568C184.046 29.8829 183.738 30.248 183.353 30.5154C182.968 30.7828 182.521 30.9431 182.055 30.9801C181.59 31.0171 181.123 30.9295 180.702 30.7263L172.9 26.9612L166.489 23.8676C166.159 24.2057 165.766 24.4742 165.333 24.6574C164.9 24.8406 164.435 24.935 163.965 24.935C163.496 24.935 163.031 24.8406 162.598 24.6574C162.164 24.4742 161.771 24.2057 161.442 23.8676L155.031 26.9612L147.229 30.7263C146.807 30.9296 146.341 31.0171 145.875 30.9801C145.41 30.9431 144.963 30.7828 144.578 30.5155C144.193 30.2481 143.885 29.8829 143.684 29.4568C143.483 29.0307 143.396 28.5585 143.433 28.0879Z" fill="#1C43CC"/>
        <path d="M170.379 62.7763C170.379 63.6721 171.097 62.7763 171.982 62.7763C172.868 62.7763 173.586 63.6721 173.586 62.7763C173.585 62.3467 173.416 61.935 173.115 61.6316C172.815 61.3281 172.407 61.1577 171.982 61.1577C171.558 61.1577 171.15 61.3281 170.85 61.6316C170.549 61.935 170.38 62.3467 170.379 62.7763Z" fill="#E6E6E6"/>
        <path d="M156.483 62.7763C156.483 63.6721 155.765 62.7763 154.879 62.7763C153.994 62.7763 153.276 63.6721 153.276 62.7763C153.277 62.3467 153.446 61.935 153.746 61.6316C154.047 61.3281 154.454 61.1577 154.879 61.1577C155.304 61.1577 155.711 61.3281 156.012 61.6316C156.312 61.935 156.482 62.3467 156.483 62.7763Z" fill="#E6E6E6"/>
        <path d="M334.38 185.238V174.928H283.419V175.573V185.238V268.361V278.671H293.611H334.38V268.361H293.611V185.238H334.38Z" fill="#3F3D56"/>
        <path d="M359.223 174.929V278.67H410.184V174.929H359.223ZM399.992 268.361H369.415V185.238H399.992V268.361Z" fill="#1C43CC"/>
        <path d="M217.807 268.361V175.573H207.614V268.361V278.671H217.807H258.575V268.361H217.807Z" fill="#1C43CC"/>
        <path d="M184.682 185.238V174.928H133.721V175.573V185.238V221.322V231.632V268.361V278.671H143.914H184.682V268.361H143.914V231.632H184.682V221.322H143.914V185.238H184.682Z" fill="#3F3D56"/>
        <path d="M583.451 185.238V174.928H532.49V175.573V185.238V221.322V231.632V268.361V278.671H542.682H583.451V268.361H542.682V231.632H583.451V221.322H542.682V185.238H583.451Z" fill="#1C43CC"/>
        <path d="M99.3228 175.573V260.781L72.4493 233.598L72.3882 233.661L72.3312 233.603L44.8586 261.393V175.251H34.6663V278.349H44.8586V275.973L72.393 248.121L99.3228 275.362V278.671H109.515V175.573H99.3228Z" fill="#3F3D56"/>
        <path d="M498.729 175.573V177.948L471.194 205.8L444.264 178.56V175.251H434.072V278.349H444.264V193.14L471.137 220.323L471.199 220.261L471.256 220.318L498.729 192.528V278.671H508.92V175.573H498.729Z" fill="#3F3D56"/>
        <path d="M232.912 112.063C236.367 112.063 239.168 109.23 239.168 105.735C239.168 102.24 236.367 99.4071 232.912 99.4071C229.457 99.4071 226.656 102.24 226.656 105.735C226.656 109.23 229.457 112.063 232.912 112.063Z" fill="#1C43CC"/>
        <path d="M78.5993 182.376C82.0544 182.376 84.8553 179.542 84.8553 176.047C84.8553 172.553 82.0544 169.719 78.5993 169.719C75.1443 169.719 72.3434 172.553 72.3434 176.047C72.3434 179.542 75.1443 182.376 78.5993 182.376Z" fill="#1C43CC"/>
        <path d="M202.328 323C205.783 323 208.584 320.167 208.584 316.672C208.584 313.177 205.783 310.344 202.328 310.344C198.873 310.344 196.072 313.177 196.072 316.672C196.072 320.167 198.873 323 202.328 323Z" fill="#1C43CC"/>
        <path d="M359.421 131.048C362.876 131.048 365.677 128.214 365.677 124.719C365.677 121.225 362.876 118.391 359.421 118.391C355.966 118.391 353.165 121.225 353.165 124.719C353.165 128.214 355.966 131.048 359.421 131.048Z" fill="#1C43CC"/>
        <path d="M543.624 317.375C547.079 317.375 549.88 314.542 549.88 311.047C549.88 307.552 547.079 304.719 543.624 304.719C540.169 304.719 537.368 307.552 537.368 311.047C537.368 314.542 540.169 317.375 543.624 317.375Z" fill="#1C43CC"/>
        <path d="M549.88 151.438C553.335 151.438 556.136 148.605 556.136 145.11C556.136 141.615 553.335 138.782 549.88 138.782C546.425 138.782 543.624 141.615 543.624 145.11C543.624 148.605 546.425 151.438 549.88 151.438Z" fill="#1C43CC"/>
        <path d="M470.638 265.344C474.093 265.344 476.894 262.511 476.894 259.016C476.894 255.521 474.093 252.688 470.638 252.688C467.183 252.688 464.382 255.521 464.382 259.016C464.382 262.511 467.183 265.344 470.638 265.344Z" fill="#1C43CC"/>
    </g>
    <defs>
        <clipPath id="clip0_14_148">
            <rect width="618" height="323" fill="white"/>
        </clipPath>
    </defs>
</svg>
